<svg id="Layer_1" data-name="Layer 1" xmlns="http://www.w3.org/2000/svg" viewBox="0 0 237 237"><defs><style>.cls-1{fill:#565656;fill-rule:evenodd;}</style></defs><path class="cls-1" d="M110.25,234.87c0-1.07,1.06-1.6,2.13-1.6s1.59,1.07,1.59,2.13-1.06,1.6-2.13,1.6S110.25,235.93,110.25,234.87Z"/><path class="cls-1" d="M100.12,233.8c0-1.06,1.07-1.59,2.14-1.59s1.59,1.06,1.59,2.13-1.06,1.59-2.13,1.59S100.12,234.87,100.12,233.8Z"/><path class="cls-1" d="M90,231.67c0-1.06,1.06-1.59,2.13-1.59s1.59,1.06,1.59,2.13-1.06,1.59-2.13,1.59S90,232.74,90,231.67Z"/><path class="cls-1" d="M80.42,229C81,228,82,227.41,82.55,228a1.94,1.94,0,0,1,1.07,2.66c-.54,1.07-1.6,1.6-2.13,1.07A2,2,0,0,1,80.42,229Z"/><path class="cls-1" d="M70.83,225.28A2,2,0,1,1,71.9,228C70.83,227.41,70.3,225.82,70.83,225.28Z"/><path class="cls-1" d="M61.78,220.49c.53-1.06,1.6-1.06,2.66-.53s1.07,1.59,1.07,2.66c-.53,1.07-1.6,1.07-2.67,1.07C61.78,222.62,61.25,221.55,61.78,220.49Z"/><path class="cls-1" d="M53.26,215.16c.53-1.06,1.6-1.06,2.66-.53s1.07,1.6.53,2.66-1.59,1.07-2.66.54S52.19,216.23,53.26,215.16Z"/><path class="cls-1" d="M44.74,209.31a1.85,1.85,0,0,1,2.66-.54c1.07.54,1.07,1.6.53,2.67s-1.6,1.06-2.66.53C44.2,210.9,44.2,209.84,44.74,209.31Z"/><path class="cls-1" d="M37.28,202.38a2.42,2.42,0,0,1,2.66,0c.54.53,1.07,2.13,0,2.66-.53.54-2.13,1.07-2.66,0A2.42,2.42,0,0,1,37.28,202.38Z"/><path class="cls-1" d="M30.36,194.93a2.39,2.39,0,0,1,2.66,0,2.42,2.42,0,0,1,0,2.66,2.42,2.42,0,0,1-2.66,0A1.5,1.5,0,0,1,30.36,194.93Z"/><path class="cls-1" d="M24,186.94c1.06-.54,2.13-.54,2.66.53s.53,2.13-.53,2.66-2.13.53-2.67-.53A2.33,2.33,0,0,1,24,186.94Z"/><path class="cls-1" d="M18.64,178.42a2.33,2.33,0,0,1,2.66.53,2.33,2.33,0,0,1-.53,2.66c-1.06.54-2.13.54-2.66-.53C17,180,17.57,179,18.64,178.42Z"/><path class="cls-1" d="M13.85,169.36A2,2,0,1,1,12.78,172,1.94,1.94,0,0,1,13.85,169.36Z"/><path class="cls-1" d="M9.59,160.31A2,2,0,1,1,8.52,163C8,161.37,8.52,160.31,9.59,160.31Z"/><path class="cls-1" d="M6.39,150.72a1.57,1.57,0,0,1,2.13,1.07c0,1.06,0,2.13-1.06,2.13-1.07.53-2.13,0-2.13-1.07C4.79,151.79,5.33,150.72,6.39,150.72Z"/><path class="cls-1" d="M3.73,140.6c1.06,0,2.13.54,2.13,1.6s-.53,2.13-1.6,2.13-2.13-.53-2.13-1.6A2.39,2.39,0,0,1,3.73,140.6Z"/><path class="cls-1" d="M2.66,130.48c1.07,0,2.13.54,2.13,1.6s-.53,2.13-1.6,2.13-2.13-.53-2.13-1.6C.53,131.55,1.6,130.48,2.66,130.48Z"/><path class="cls-1" d="M2.13,120.36A2.38,2.38,0,0,1,4.26,122c0,1.07-.53,2.13-1.6,2.13-1.59,0-2.66-.53-2.66-1.59A2.3,2.3,0,0,1,2.13,120.36Z"/><path class="cls-1" d="M2.13,110.25c1.07,0,1.6,1.06,1.6,2.13S2.66,114,1.6,114A2.38,2.38,0,0,1,0,111.84C0,110.78,1.07,110.25,2.13,110.25Z"/><path class="cls-1" d="M3.2,100.13c1.06,0,1.59,1.06,1.59,2.13s-1.06,1.59-2.13,1.59-1.6-1.06-1.6-2.13C1.6,100.66,2.13,100.13,3.2,100.13Z"/><path class="cls-1" d="M5.33,90c1.06,0,1.59,1.06,1.59,2.13s-1.06,1.6-2.13,1.6S3.2,92.67,3.2,91.61,4.26,90,5.33,90Z"/><path class="cls-1" d="M8.52,80.42c1.07.53,1.6,1.6,1.07,2.13a2,2,0,0,1-2.67,1.07c-1.06-.54-1.59-1.6-1.06-2.13A1.94,1.94,0,0,1,8.52,80.42Z"/><path class="cls-1" d="M12.25,70.83a2,2,0,0,1,1.06,2.67,4.05,4.05,0,0,1-2.66,1.06,2,2,0,0,1,1.6-3.73Z"/><path class="cls-1" d="M16.51,61.78c1.07.53,1.07,1.6.53,2.66s-1.6,1.07-2.66,1.07c-1.07-.53-1.07-1.6-1.07-2.66C14.38,61.78,16,61.25,16.51,61.78Z"/><path class="cls-1" d="M21.84,53.26c1.06.53,1.06,1.6.53,2.66s-1.6,1.07-2.66.53-1.07-1.59-.54-2.66S21.3,52.19,21.84,53.26Z"/><path class="cls-1" d="M28.23,44.74a1.86,1.86,0,0,1,.53,2.66,2.52,2.52,0,0,1-3.2.53,2.38,2.38,0,0,1,0-2.66C26.1,44.2,27.16,44.2,28.23,44.74Z"/><path class="cls-1" d="M34.62,37.28a2.42,2.42,0,0,1,0,2.66c-.53.54-2.13,1.07-2.66,0a2.34,2.34,0,0,1,0-2.66A2.38,2.38,0,0,1,34.62,37.28Z"/><path class="cls-1" d="M42.07,30.36a2.39,2.39,0,0,1,0,2.66,2.42,2.42,0,0,1-2.66,0,2.38,2.38,0,0,1,0-2.66C40.48,29.29,41.54,29.29,42.07,30.36Z"/><path class="cls-1" d="M50.06,24a1.75,1.75,0,0,1,0,2.66c-1.06.53-2.13.53-2.66-.53-1.07-.54-.53-1.6,0-2.67A2.33,2.33,0,0,1,50.06,24Z"/><path class="cls-1" d="M58.58,18.64a2.33,2.33,0,0,1-.53,2.66c-.53.54-2.13,0-2.66-.53-.53-1.06-.53-2.13.53-2.66S58.05,17.57,58.58,18.64Z"/><path class="cls-1" d="M67.64,13.85A2,2,0,1,1,65,12.78,1.94,1.94,0,0,1,67.64,13.85Z"/><path class="cls-1" d="M77.22,9.59a2,2,0,1,1-2.66-1.07A1.94,1.94,0,0,1,77.22,9.59Z"/><path class="cls-1" d="M86.81,6.39a1.57,1.57,0,0,1-1.06,2.13c-1.07,0-2.13,0-2.13-1.06-.54-1.07,0-2.13,1.06-2.13C85.21,4.79,86.28,5.33,86.81,6.39Z"/><path class="cls-1" d="M96.4,3.73c0,1.06-.53,2.13-1.6,2.13s-2.13-.53-2.13-1.6.53-2.13,1.6-2.13A2.39,2.39,0,0,1,96.4,3.73Z"/><path class="cls-1" d="M106.52,2.66c0,1.07-.53,2.13-1.6,2.13s-2.13-.53-2.13-1.59.53-2.13,1.6-2.13C105.45.53,106.52,1.6,106.52,2.66Z"/><path class="cls-1" d="M116.64,2.13A2.38,2.38,0,0,1,115,4.26c-1.07,0-2.13-.53-2.13-1.6S113.44.53,114.5.53,116.64,1.07,116.64,2.13Z"/><path class="cls-1" d="M127.29,2.13c0,1.07-1.07,1.6-2.13,1.6s-1.6-1.07-1.6-2.13S124.62,0,125.69,0,127.29,1.07,127.29,2.13Z"/><path class="cls-1" d="M137.41,3.2c0,1.06-1.07,1.59-2.13,1.59a2.28,2.28,0,0,1-2.13-2.13c0-1.06,1.06-1.6,2.13-1.6C136.34,1.6,137.41,2.13,137.41,3.2Z"/><path class="cls-1" d="M147,5.33c0,1.06-1.06,1.59-2.13,1.59s-1.6-1.06-1.6-2.13,1.07-1.59,2.14-1.59C147,3.2,147.53,4.26,147,5.33Z"/><path class="cls-1" d="M157.11,8.52c-.53,1.07-1.6,1.6-2.13,1.07a2,2,0,0,1-1.06-2.67c-.54-1.06.53-1.59,1.59-1.06A2.92,2.92,0,0,1,157.11,8.52Z"/><path class="cls-1" d="M166.17,12.25a2,2,0,0,1-3.73-1.6,2,2,0,0,1,3.73,1.6Z"/><path class="cls-1" d="M175.22,16.51c-.53,1.07-1.6,1.07-2.66.53s-1.07-1.6-1.07-2.66c.53-1.07,1.6-1.07,2.66-1.07C175.75,14.38,175.75,16,175.22,16.51Z"/><path class="cls-1" d="M184.27,21.84c-.53,1.06-1.59,1.06-2.66.53s-1.06-1.6-.53-2.67,1.6-1.06,2.66-.53C184.27,19.7,184.81,21.3,184.27,21.84Z"/><path class="cls-1" d="M192.26,28.23a1.86,1.86,0,0,1-2.66.53c-1.06-.53-1.06-1.6-.53-2.66s1.59-1.07,2.66-.54S192.79,27.16,192.26,28.23Z"/><path class="cls-1" d="M199.72,34.62a2.42,2.42,0,0,1-2.66,0c-.54-.53-1.07-2.13,0-2.66.53-.54,2.13-1.07,2.66,0C200.78,33,200.78,34.09,199.72,34.62Z"/><path class="cls-1" d="M206.64,42.07a2.39,2.39,0,0,1-2.66,0,2.42,2.42,0,0,1,0-2.66,2.42,2.42,0,0,1,2.66,0C207.18,39.94,207.71,41.54,206.64,42.07Z"/><path class="cls-1" d="M213,50.06c-1.06.54-2.13.54-2.66-.53s-.53-2.13.53-2.66,2.13-.53,2.67.53S214.1,49.53,213,50.06Z"/><path class="cls-1" d="M218.89,58.58a2.33,2.33,0,0,1-2.66-.53,2.35,2.35,0,0,1,.53-2.66c1.07-.53,2.13-.53,2.67.53A2.33,2.33,0,0,1,218.89,58.58Z"/><path class="cls-1" d="M223.69,67.64A2,2,0,1,1,224.75,65C224.75,66,224.75,67.11,223.69,67.64Z"/><path class="cls-1" d="M227.41,77.22a2,2,0,1,1,1.07-2.66A1.94,1.94,0,0,1,227.41,77.22Z"/><path class="cls-1" d="M230.61,86.81a1.57,1.57,0,0,1-2.13-1.06c0-1.07,0-2.13,1.06-2.13,1.07-.54,2.13,0,2.13,1.06C232.74,85.21,231.67,86.28,230.61,86.81Z"/><path class="cls-1" d="M233.27,96.4c-1.06,0-2.13-.54-2.13-1.6s.53-2.13,1.6-2.13,2.13.53,2.13,1.6S234.34,96.4,233.27,96.4Z"/><path class="cls-1" d="M234.87,106.52c-1.07,0-2.13-.53-2.13-1.6s.53-2.13,1.6-2.13,2.13.53,2.13,1.6S235.93,106.52,234.87,106.52Z"/><path class="cls-1" d="M235.4,116.64a2.39,2.39,0,0,1-2.13-1.6c0-1.07.53-2.13,1.6-2.13s2.13.53,2.13,1.59C237,116.1,236.47,116.64,235.4,116.64Z"/><path class="cls-1" d="M234.87,127.29c-1.07,0-1.6-1.07-1.6-2.13s1.07-1.6,2.13-1.6,1.6,1.07,1.6,2.13A2.39,2.39,0,0,1,234.87,127.29Z"/><path class="cls-1" d="M233.8,137.41c-1.06,0-1.59-1.07-1.59-2.13s1.06-1.6,2.13-1.6,1.59,1.06,1.59,2.13A2.38,2.38,0,0,1,233.8,137.41Z"/><path class="cls-1" d="M231.67,147c-1.06,0-1.59-1.06-1.59-2.13s1.06-1.6,2.13-1.6,1.59,1.07,1.59,2.14C233.8,147,232.74,147.52,231.67,147Z"/><path class="cls-1" d="M229,157.11c-1.06-.53-1.6-1.6-1.06-2.13a1.94,1.94,0,0,1,2.66-1.06c1.06.53,1.6,1.59,1.06,2.13A4.05,4.05,0,0,1,229,157.11Z"/><path class="cls-1" d="M225.28,166.17A2,2,0,1,1,228,165.1C227.41,166.17,225.82,166.7,225.28,166.17Z"/><path class="cls-1" d="M220.49,175.22c-1.07-.53-1.07-1.6-.53-2.66s1.59-1.07,2.66-1.07c1.06.54,1.06,1.6,1.06,2.67C222.62,175.75,221.55,175.75,220.49,175.22Z"/><path class="cls-1" d="M215.16,184.27c-1.06-.53-1.06-1.59-.53-2.66s1.6-1.06,2.66-.53,1.07,1.6.54,2.66A2.35,2.35,0,0,1,215.16,184.27Z"/><path class="cls-1" d="M209.31,192.26a1.85,1.85,0,0,1-.54-2.66c.54-1.06,1.6-1.06,2.67-.53s1.06,1.59.53,2.66C210.9,192.79,209.84,192.79,209.31,192.26Z"/><path class="cls-1" d="M202.38,199.72a2.42,2.42,0,0,1,0-2.66c.53-.54,2.13-1.07,2.66,0,.54.53,1.07,2.13,0,2.66A1.51,1.51,0,0,1,202.38,199.72Z"/><path class="cls-1" d="M194.93,206.64a2.39,2.39,0,0,1,0-2.66,1.88,1.88,0,0,1,2.66,2.66A1.5,1.5,0,0,1,194.93,206.64Z"/><path class="cls-1" d="M186.94,213c-.54-1.06-.54-2.13.53-2.66s2.13-.53,2.66.53.53,2.13-.53,2.67S187.47,214.1,186.94,213Z"/><path class="cls-1" d="M178.42,218.89a1.92,1.92,0,1,1,3.19-2.13c.53,1.07.53,2.13-.53,2.67A2.33,2.33,0,0,1,178.42,218.89Z"/><path class="cls-1" d="M169.36,223.68a2,2,0,1,1,2.66,1.07C171,224.75,169.89,224.75,169.36,223.68Z"/><path class="cls-1" d="M160.31,227.41a2,2,0,1,1,2.66,1.07C161.91,229,160.31,228.48,160.31,227.41Z"/><path class="cls-1" d="M150.72,230.61a1.57,1.57,0,0,1,1.07-2.13c1.06,0,2.13,0,2.13,1.06.53,1.07,0,2.14-1.07,2.14C151.79,232.74,150.72,231.68,150.72,230.61Z"/><path class="cls-1" d="M140.6,233.27c0-1.06.53-2.13,1.6-2.13s2.13.54,2.13,1.6-.53,2.13-1.6,2.13S140.6,234.34,140.6,233.27Z"/><path class="cls-1" d="M130.48,234.87c0-1.06.53-2.13,1.6-2.13s2.13.53,2.13,1.6-.53,2.13-1.6,2.13S130.48,235.94,130.48,234.87Z"/><path class="cls-1" d="M120.36,235.4a2.39,2.39,0,0,1,1.6-2.13c1.07,0,2.13.53,2.13,1.6s-.53,2.13-1.6,2.13S120.36,236.47,120.36,235.4Z"/><path class="cls-1" d="M110.25,224.75c0-1.07,1.06-1.6,2.13-1.6s1.59,1.07,1.59,2.13-1.06,1.6-2.13,1.6C110.78,226.35,110.25,225.82,110.25,224.75Z"/><path class="cls-1" d="M100.12,223.15c0-1.06,1.07-1.6,2.14-1.6s1.59,1.07,1.59,2.13-1.06,1.6-2.13,1.6S100.12,224.22,100.12,223.15Z"/><path class="cls-1" d="M90.54,221c.53-1.06,1.06-1.59,2.13-1.59s1.6,1.06,1.6,2.12-1.07,1.6-2.13,1.6C90.54,223.15,90,222.09,90.54,221Z"/><path class="cls-1" d="M80.42,217.83a2,2,0,1,1,1.07,2.66A4,4,0,0,1,80.42,217.83Z"/><path class="cls-1" d="M71.37,214.1A1.94,1.94,0,0,1,74,213c1.06.54,1.06,1.6,1.06,2.67a1.94,1.94,0,0,1-2.66,1.06C71.37,216.23,70.83,214.63,71.37,214.1Z"/><path class="cls-1" d="M62.31,208.77c.53-1.06,1.6-1.06,2.67-.53s1.06,1.6.53,2.66-1.6,1.07-2.67.53S61.78,209.84,62.31,208.77Z"/><path class="cls-1" d="M54.32,203.45c.54-1.07,1.6-1.07,2.67-.54s1.06,1.6.53,2.67-1.6,1.06-2.66.53A1.85,1.85,0,0,1,54.32,203.45Z"/><path class="cls-1" d="M46.33,196.52c.54-.53,2.13-1.06,2.67,0,.53.54,1.06,2.13,0,2.67-.54.53-2.13,1.06-2.67,0A2.4,2.4,0,0,1,46.33,196.52Z"/><path class="cls-1" d="M39.41,189.6a2.42,2.42,0,0,1,2.66,0,2.39,2.39,0,0,1,0,2.66,2.42,2.42,0,0,1-2.66,0C38.35,191.2,38.35,190.13,39.41,189.6Z"/><path class="cls-1" d="M33,181.61c1.07-.53,2.13-.53,2.66.53s.54,2.13-.53,2.67-2.13.53-2.66-.54S32,182.14,33,181.61Z"/><path class="cls-1" d="M27.16,173.09a2.36,2.36,0,0,1,2.67.53c.53.53,0,2.13-.54,2.67-1.06.53-2.13.53-2.66-.54A2.35,2.35,0,0,1,27.16,173.09Z"/><path class="cls-1" d="M22.37,164.57a2,2,0,1,1-1.07,2.66C21.3,166.17,21.84,164.57,22.37,164.57Z"/><path class="cls-1" d="M18.64,155a2,2,0,1,1-1.06,2.67A1.94,1.94,0,0,1,18.64,155Z"/><path class="cls-1" d="M15.44,145.4c1.07,0,2.14.53,2.14,1.06,0,1.07-.54,2.13-1.6,2.13a1.57,1.57,0,0,1-2.13-1.06A2.37,2.37,0,0,1,15.44,145.4Z"/><path class="cls-1" d="M13.85,135.28c1.06,0,2.13.53,2.13,1.59s-.54,2.13-1.6,2.13-2.13-.53-2.13-1.59C11.72,136.34,12.78,135.81,13.85,135.28Z"/><path class="cls-1" d="M12.25,125.16c1.06,0,2.13.53,2.13,1.59s-.53,2.13-1.6,2.13-2.13-.53-2.13-1.59S11.72,125.69,12.25,125.16Z"/><path class="cls-1" d="M12.25,115c1.06,0,1.6,1.06,1.6,2.13s-1.07,1.6-2.13,2.13c-1.07,0-2.13-1.07-1.6-2.13S11.18,115,12.25,115Z"/><path class="cls-1" d="M13.31,104.92c1.07,0,1.6,1.06,1.6,2.13s-1.06,1.6-2.13,1.6-2.13-1.07-1.6-2.13A2.37,2.37,0,0,1,13.31,104.92Z"/><path class="cls-1" d="M14.91,95.33c1.07,0,1.6,1.07,1.6,2.13s-1.07,1.6-2.13,1.6-1.6-1.06-1.6-2.13S13.85,94.8,14.91,95.33Z"/><path class="cls-1" d="M17.57,85.21c1.07.54,1.6,1.6,1.07,2.13,0,1.07-1.07,1.6-2.13,1.07a2.92,2.92,0,0,1-1.6-2.66A22.83,22.83,0,0,1,17.57,85.21Z"/><path class="cls-1" d="M21.3,76.16c1.07.53,1.07,1.6,1.07,2.66a2,2,0,1,1-1.07-2.66Z"/><path class="cls-1" d="M25.56,67.11a1.32,1.32,0,0,1,.54,2.13c-.54,1.06-1.6,1.06-2.67,1.06-1.06-.53-1.06-1.6-1.06-2.66A2.49,2.49,0,0,1,25.56,67.11Z"/><path class="cls-1" d="M30.89,58.05c1.06,1.07,1.06,2.13.53,2.66-.53,1.07-1.6,1.07-2.66.54s-1.07-1.6-.53-2.67A2.34,2.34,0,0,1,30.89,58.05Z"/><path class="cls-1" d="M37.28,50.06a2.4,2.4,0,0,1,0,2.67c-.53,1.06-1.6,1.06-2.66.53-.53-.53-1.07-2.13,0-2.66C35.15,49.53,36.22,49.53,37.28,50.06Z"/><path class="cls-1" d="M43.67,42.61a2.42,2.42,0,0,1,0,2.66,2.42,2.42,0,0,1-2.66,0,2.38,2.38,0,0,1,0-2.66A2.35,2.35,0,0,1,43.67,42.61Z"/><path class="cls-1" d="M51.66,36.22a2.38,2.38,0,0,1,0,2.66,2.42,2.42,0,0,1-2.66,0,2,2,0,0,1,0-3.2C49.53,35.15,50.6,35.15,51.66,36.22Z"/><path class="cls-1" d="M59.65,29.82c.53,1.07.53,2.13-.53,2.67S57,33,56.45,32s-.53-2.13.54-2.66A2.35,2.35,0,0,1,59.65,29.82Z"/><path class="cls-1" d="M68.17,25a2.34,2.34,0,0,1-.53,2.66A2.35,2.35,0,0,1,65,27.16a2.33,2.33,0,0,1,.54-2.66C66.57,23.43,67.64,24,68.17,25Z"/><path class="cls-1" d="M77.22,20.24a2,2,0,1,1-2.66-1.07C76.16,19.17,77.22,19.17,77.22,20.24Z"/><path class="cls-1" d="M86.81,17a2,2,0,0,1-1.06,2.67c-1.07.53-2.13,0-2.13-1.07A1.94,1.94,0,0,1,84.68,16C85.75,15.44,86.81,16,86.81,17Z"/><path class="cls-1" d="M96.93,14.38c0,1.06-.53,2.13-1.6,2.13S93.2,16,93.2,14.91s.53-2.13,1.6-2.13S96.4,13.31,96.93,14.38Z"/><path class="cls-1" d="M106.52,12.78c0,1.07-.53,2.13-1.6,2.13s-2.13-.53-2.13-1.6.53-2.13,1.6-2.13S106.52,11.72,106.52,12.78Z"/><path class="cls-1" d="M116.64,12.25a2.39,2.39,0,0,1-1.6,2.13c-.54,0-2.13-.53-2.13-1.6s.53-2.13,1.59-2.13C116.1,10.65,116.64,11.18,116.64,12.25Z"/><path class="cls-1" d="M126.75,12.78c0,1.07-1.06,1.6-2.13,1.6S123,13.31,123,12.25s1.06-1.6,2.13-1.6S127.29,11.72,126.75,12.78Z"/><path class="cls-1" d="M136.87,13.85c0,1.06-1.06,1.59-2.13,1.59s-1.59-1.06-1.59-2.13,1.06-1.59,2.13-1.59S137.41,12.78,136.87,13.85Z"/><path class="cls-1" d="M147,16c-.53,1.06-1.06,1.6-2.13,1.6s-1.6-1.07-1.6-2.13,1.07-1.6,2.14-1.6S147,14.91,147,16Z"/><path class="cls-1" d="M156.58,19.17a2,2,0,0,1-3.73-1.59,2,2,0,0,1,3.73,1.59Z"/><path class="cls-1" d="M165.63,23.43A1.94,1.94,0,0,1,163,24.5c-1.06-.53-1.06-1.6-1.06-2.66a2,2,0,1,1,3.72,1.59Z"/><path class="cls-1" d="M174.69,28.23c-.54,1.06-1.6,1.06-2.67.53s-1.06-1.6-.53-2.66,1.6-1.07,2.66-.54A2.35,2.35,0,0,1,174.69,28.23Z"/><path class="cls-1" d="M183.21,34.08c-.53,1.07-1.6,1.07-2.66.54S179.48,33,180,32s1.6-1.06,2.67-.53A2.35,2.35,0,0,1,183.21,34.08Z"/><path class="cls-1" d="M190.66,40.48c-.53.53-2.12,1.06-2.66,0-.53-.54-1.06-2.13,0-2.67.54-.53,2.13-1.06,2.66,0A2.4,2.4,0,0,1,190.66,40.48Z"/><path class="cls-1" d="M197.59,47.93a2.39,2.39,0,0,1-2.66,0,2.39,2.39,0,0,1,0-2.66,2.42,2.42,0,0,1,2.66,0C198.65,45.8,198.65,46.87,197.59,47.93Z"/><path class="cls-1" d="M204,55.39c-1.07.53-2.13.53-2.66-.53s-.54-2.14.53-2.67,2.13-.53,2.66.53S205,54.86,204,55.39Z"/><path class="cls-1" d="M209.84,63.91a2.34,2.34,0,0,1-2.66-.53,2.35,2.35,0,0,1,.53-2.67c1.06-.53,2.13-.53,2.66.54S210.9,63.38,209.84,63.91Z"/><path class="cls-1" d="M214.63,73a2,2,0,1,1,1.07-2.66C215.7,71.37,215.7,72.43,214.63,73Z"/><path class="cls-1" d="M218.36,82a2,2,0,1,1,1.07-2.67C220,81,219.43,82,218.36,82Z"/><path class="cls-1" d="M221.55,91.6c-1.06,0-2.12-.53-2.12-1.06,0-1.07.53-2.13,1.59-2.13a1.57,1.57,0,0,1,2.13,1.06C223.15,90,222.62,91.6,221.55,91.6Z"/><path class="cls-1" d="M223.68,101.72c-1.06,0-2.13-.53-2.13-1.6s.54-2.12,1.6-2.12,2.13.53,2.13,1.59S224.75,101.72,223.68,101.72Z"/><path class="cls-1" d="M224.75,111.84c-1.06,0-2.13-.53-2.13-1.59s.53-2.14,1.6-2.14,2.13.54,2.13,1.6S225.82,111.84,224.75,111.84Z"/><path class="cls-1" d="M224.75,122c-1.07,0-1.6-1.06-1.6-2.13s1.07-1.6,2.13-2.13c1.07,0,2.13,1.07,1.6,2.13A2.28,2.28,0,0,1,224.75,122Z"/><path class="cls-1" d="M224.22,132.08c-1.07,0-1.6-1.07-1.6-2.13s1.06-1.6,2.13-1.6,2.13,1.07,1.6,2.13C226.35,131.55,225.28,132.08,224.22,132.08Z"/><path class="cls-1" d="M222.62,142.2c-1.07,0-1.6-1.07-1.6-2.13s1.07-1.6,2.13-1.6,1.6,1.07,1.6,2.13A2.85,2.85,0,0,1,222.62,142.2Z"/><path class="cls-1" d="M220,151.79c-1.07-.54-1.6-1.6-1.07-2.13,0-1.07,1.07-1.6,2.13-1.07a2.92,2.92,0,0,1,1.6,2.66C221.55,151.79,220.49,152.32,220,151.79Z"/><path class="cls-1" d="M216.23,161.37c-1.07-.53-1.07-1.6-1.07-2.66a2,2,0,0,1,3.73,1.6C218.36,161.37,216.76,161.91,216.23,161.37Z"/><path class="cls-1" d="M211.44,170.43c-1.07-.53-1.07-1.6-.54-2.67s1.6-1.06,2.67-1.06c1.06.53,1.06,1.6,1.06,2.66C213.57,170.43,212.5,171,211.44,170.43Z"/><path class="cls-1" d="M206.11,179c-1.07-.54-1.07-1.6-.53-2.67s1.6-1.06,2.66-.53,1.07,1.6.53,2.66S207.18,179.48,206.11,179Z"/><path class="cls-1" d="M200.25,186.94c-1.06-.54-1.06-1.6-.53-2.67s1.6-1.06,2.66-.53,1.07,1.6.53,2.66A1.85,1.85,0,0,1,200.25,186.94Z"/><path class="cls-1" d="M193.33,194.39a1.88,1.88,0,1,1,2.66,0C195.46,195.46,193.86,194.93,193.33,194.39Z"/><path class="cls-1" d="M185.87,201.32a2.4,2.4,0,0,1,0-2.67,1.89,1.89,0,0,1,2.67,2.67A1.77,1.77,0,0,1,185.87,201.32Z"/><path class="cls-1" d="M177.35,207.18c-.53-1.07-.53-2.14.53-2.67s2.13-.53,2.67.53.53,2.14-.54,2.67C179.48,208.24,178.41,208.24,177.35,207.18Z"/><path class="cls-1" d="M168.83,212.5a1.92,1.92,0,1,1,2.66.53C170.43,213.57,169.36,213.57,168.83,212.5Z"/><path class="cls-1" d="M159.78,216.76a2,2,0,1,1,2.66,1.07A1.94,1.94,0,0,1,159.78,216.76Z"/><path class="cls-1" d="M150.19,220.49a1.94,1.94,0,0,1,1.06-2.66c1.07-.54,2.13,0,2.13,1.06a1.94,1.94,0,0,1-1.06,2.66A4,4,0,0,1,150.19,220.49Z"/><path class="cls-1" d="M140.6,222.62c0-1.07.53-2.13,1.6-2.13s2.13.53,2.13,1.6-.53,2.13-1.6,2.13S140.6,223.68,140.6,222.62Z"/><path class="cls-1" d="M130.48,224.22c0-1.07.54-2.13,1.6-2.13s2.13.53,2.13,1.59-.53,2.14-1.6,2.14C131.55,226.35,130.48,225.28,130.48,224.22Z"/><path class="cls-1" d="M120.36,224.75a2.38,2.38,0,0,1,1.6-2.13c1.07,0,2.13.53,2.13,1.6s-.53,2.13-1.6,2.13C121.43,226.88,120.36,225.82,120.36,224.75Z"/><path class="cls-1" d="M110.25,214.1c0-1.07,1.06-1.6,2.13-1.6s1.59,1.07,1.59,2.13-1.06,1.6-2.13,1.6S110.25,215.16,110.25,214.1Z"/><path class="cls-1" d="M100.13,213c0-1.06,1.06-1.59,2.13-1.59s1.59,1.06,1.59,2.13-1.06,1.59-2.13,1.59C100.66,214.63,100.13,214.1,100.13,213Z"/><path class="cls-1" d="M90.54,210.37a2.87,2.87,0,0,1,2.13-1.6,1.58,1.58,0,0,1,1.07,2.13c0,1.07-1.07,1.6-2.14,1.6A1.57,1.57,0,0,1,90.54,210.37Z"/><path class="cls-1" d="M81,207.18A2,2,0,1,1,82,209.84,2,2,0,0,1,81,207.18Z"/><path class="cls-1" d="M71.9,202.38c.53-1.06,1.6-1.06,2.66-.53s1.07,1.6,1.07,2.66c-.54,1.07-1.6,1.07-2.67,1.07C71.9,204.51,71.37,203.45,71.9,202.38Z"/><path class="cls-1" d="M63.38,197.06C63.91,196,65,196,66,196.52s1.07,1.6.53,2.67-1.59,1.06-2.66.53A2.35,2.35,0,0,1,63.38,197.06Z"/><path class="cls-1" d="M55.39,191.2a1.88,1.88,0,0,1,2.66,2.66c-.53.53-2.13,1.07-2.66.53C54.86,193.33,54.86,191.73,55.39,191.2Z"/><path class="cls-1" d="M48.47,184.27a2.42,2.42,0,0,1,2.66,0,2.44,2.44,0,0,1,0,2.67,2.42,2.42,0,0,1-2.66,0C47.4,185.87,47.4,184.81,48.47,184.27Z"/><path class="cls-1" d="M42.07,176.29a1.85,1.85,0,0,1,2.67.53c.53,1.06.53,2.13-.54,2.66s-2.13.53-2.66-.53S41,176.82,42.07,176.29Z"/><path class="cls-1" d="M36.22,168.3c1.06-.54,2.13-.54,2.66.53a2.35,2.35,0,0,1-.53,2.66,2,2,0,0,1-2.67-1.06C35.15,169.89,35.68,168.83,36.22,168.3Z"/><path class="cls-1" d="M31.42,159.24a2,2,0,1,1-1.06,2.67A4.08,4.08,0,0,1,31.42,159.24Z"/><path class="cls-1" d="M27.69,149.66a2,2,0,1,1-1.06,2.66A1.95,1.95,0,0,1,27.69,149.66Z"/><path class="cls-1" d="M25,140.07c1.07,0,2.13.53,2.13,1.6s-.53,2.13-1.6,2.13c-1.06.53-2.13-.53-2.13-1.6S24,140.6,25,140.07Z"/><path class="cls-1" d="M23.43,130.48c1.07,0,2.13.54,2.13,1.6S25,134.21,24,134.21s-2.13-.53-2.13-1.6C21.3,131.55,22.37,130.48,23.43,130.48Z"/><path class="cls-1" d="M22.37,120.36c1.06,0,2.13.54,2.13,1.6s-.53,2.13-1.6,2.13-2.13-.53-2.13-1.6S21.3,120.36,22.37,120.36Z"/><path class="cls-1" d="M22.9,110.25c1.07,0,1.6,1.06,1.6,2.13S23.43,114,22.37,114s-1.6-1.06-1.6-2.13S21.84,110.25,22.9,110.25Z"/><path class="cls-1" d="M24.5,100.12c1.06,0,1.6,1.07,1.6,2.13s-1.07,1.6-2.13,1.6-1.6-1.06-1.6-2.13S23.43,100.12,24.5,100.12Z"/><path class="cls-1" d="M26.63,90.54a2.87,2.87,0,0,1,1.6,2.13c0,1.06-1.07,1.6-2.13,1.06-1.07,0-1.6-1.06-1.6-2.13A1.57,1.57,0,0,1,26.63,90.54Z"/><path class="cls-1" d="M30.36,81A2,2,0,1,1,27.69,82,2,2,0,0,1,30.36,81Z"/><path class="cls-1" d="M34.62,71.9c1.06.53,1.06,1.6.53,2.66s-1.6,1.07-2.66,1.07A2.35,2.35,0,0,1,32,73,1.94,1.94,0,0,1,34.62,71.9Z"/><path class="cls-1" d="M39.94,63.38C41,63.91,41,65,40.48,66s-1.6,1.07-2.67.53-1.06-1.59-.53-2.66A2.35,2.35,0,0,1,39.94,63.38Z"/><path class="cls-1" d="M46.34,55.39a1.88,1.88,0,1,1-2.67,2.66c-.53-.53-1.06-2.13-.53-2.66A3.42,3.42,0,0,1,46.34,55.39Z"/><path class="cls-1" d="M53.26,48.46a2.44,2.44,0,0,1,0,2.67,2.42,2.42,0,0,1-2.66,0,2.4,2.4,0,0,1,0-2.67C51.13,47.4,52.19,47.4,53.26,48.46Z"/><path class="cls-1" d="M60.71,42.07c.54,1.07.54,2.13-.53,2.67s-1.6.53-2.13-.54-.53-2.13.53-2.66S60.18,41,60.71,42.07Z"/><path class="cls-1" d="M69.24,36.22a2.33,2.33,0,0,1-.54,2.66A2.35,2.35,0,0,1,66,38.35c-.53-1.07-.53-2.13.53-2.67A2.35,2.35,0,0,1,69.24,36.22Z"/><path class="cls-1" d="M77.76,31.42a2,2,0,1,1-2.67-1.06C76.16,30.36,77.76,30.89,77.76,31.42Z"/><path class="cls-1" d="M87.34,27.69a2,2,0,1,1-2.66-1.06A1.95,1.95,0,0,1,87.34,27.69Z"/><path class="cls-1" d="M96.93,25c0,1.07-.53,2.13-1.6,2.13s-2.13-.53-2.13-1.6c-.53-1.06.53-2.13,1.6-2.13S96.93,24,96.93,25Z"/><path class="cls-1" d="M107.05,23.43c0,1.07-.53,2.13-1.6,2.13S103.32,25,103.32,24s.53-2.13,1.6-2.13C106,21.3,106.52,22.37,107.05,23.43Z"/><path class="cls-1" d="M116.64,22.37c0,1.06-.54,2.13-1.6,2.13s-2.13-.53-2.13-1.6.53-2.13,1.6-2.13C116.1,20.77,116.64,21.3,116.64,22.37Z"/><path class="cls-1" d="M126.75,22.9c0,1.07-1.06,1.6-2.13,1.6S123,23.43,123,22.37s1.06-1.6,2.13-1.6S127.29,21.84,126.75,22.9Z"/><path class="cls-1" d="M136.87,24.5c0,1.06-1.06,1.6-2.13,1.6S133.15,25,133.15,24s1.06-1.6,2.13-1.6S136.87,23.43,136.87,24.5Z"/><path class="cls-1" d="M146.46,26.63a2.87,2.87,0,0,1-2.13,1.6c-1.06,0-1.6-1.07-1.06-2.13,0-1.07,1.06-1.6,2.13-1.6S147,25.56,146.46,26.63Z"/><path class="cls-1" d="M156.05,30.36A2,2,0,1,1,155,27.69,2,2,0,0,1,156.05,30.36Z"/><path class="cls-1" d="M165.1,34.62c-.53,1.06-1.6,1.06-2.66.53s-1.07-1.6-1.07-2.66c1.07-.54,2.13-1.07,3.2-.54A2.36,2.36,0,0,1,165.1,34.62Z"/><path class="cls-1" d="M173.62,39.94C173.09,41,172,41,171,40.48a2.36,2.36,0,0,1-.53-2.67c.53-1.06,1.59-1.06,2.66-.53S174.15,38.88,173.62,39.94Z"/><path class="cls-1" d="M181.61,46.34A1.88,1.88,0,0,1,179,43.67c.53-.53,2.13-1.06,2.66-.53A3.42,3.42,0,0,1,181.61,46.34Z"/><path class="cls-1" d="M188.54,53.26a2.44,2.44,0,0,1-2.67,0,2.42,2.42,0,0,1,0-2.66,2.4,2.4,0,0,1,2.67,0C189.6,51.13,189.6,52.19,188.54,53.26Z"/><path class="cls-1" d="M195.46,60.71c-1.07.54-2.13.54-2.67-.53s-.53-2.13.54-2.66,2.13-.53,2.66.53A2.34,2.34,0,0,1,195.46,60.71Z"/><path class="cls-1" d="M200.78,69.24c-1.06.53-2.13.53-2.66-.54a2.35,2.35,0,0,1,.53-2.66c1.07-.53,2.13-.53,2.67.53S201.85,68.7,200.78,69.24Z"/><path class="cls-1" d="M205.58,77.76a2,2,0,1,1,1.06-2.67C207.18,76.16,206.64,77.76,205.58,77.76Z"/><path class="cls-1" d="M209.31,87.34a2,2,0,1,1,1.06-2.66A1.95,1.95,0,0,1,209.31,87.34Z"/><path class="cls-1" d="M212,96.93c-1.07,0-2.13-.53-2.13-1.6s.53-2.13,1.6-2.13c1.06-.53,2.13.53,2.13,1.6S213,96.93,212,96.93Z"/><path class="cls-1" d="M214.1,107.05c-1.07,0-2.13-.53-2.13-1.6s.53-2.13,1.6-2.13,2.13.53,2.13,1.6S215.16,106.52,214.1,107.05Z"/><path class="cls-1" d="M214.63,116.64c-1.06,0-2.13-.54-2.13-1.6s.53-2.13,1.6-2.13,2.13.53,2.13,1.59C216.23,116.1,215.7,116.64,214.63,116.64Z"/><path class="cls-1" d="M214.1,126.75c-1.07,0-1.6-1.06-1.6-2.13s1.07-1.59,2.13-1.59,1.6,1.06,1.6,2.13S215.16,127.29,214.1,126.75Z"/><path class="cls-1" d="M213,136.87c-1.06,0-1.59-1.06-1.59-2.13s1.06-1.59,2.13-1.59,1.59,1.06,1.59,2.13S214.1,136.87,213,136.87Z"/><path class="cls-1" d="M210.37,146.46a2.87,2.87,0,0,1-1.6-2.13,1.58,1.58,0,0,1,2.13-1.07c1.07,0,1.6,1.07,1.6,2.14S211.44,147,210.37,146.46Z"/><path class="cls-1" d="M207.18,156.05a2,2,0,1,1,2.66-1.07A2,2,0,0,1,207.18,156.05Z"/><path class="cls-1" d="M202.38,165.1c-1.06-.53-1.06-1.6-.53-2.66s1.6-1.07,2.66-1.07c1.07.54,1.07,1.6,1.07,2.67C204.51,165.1,203.45,165.63,202.38,165.1Z"/><path class="cls-1" d="M197.06,173.62c-1.07-.53-1.07-1.6-.54-2.66s1.6-1.07,2.67-.53,1.06,1.59.53,2.66S198.12,174.15,197.06,173.62Z"/><path class="cls-1" d="M191.2,181.61a1.88,1.88,0,0,1,2.66-2.66c.53.53,1.07,2.13.53,2.66C193.33,182.14,191.73,182.14,191.2,181.61Z"/><path class="cls-1" d="M184.27,188.54a1.89,1.89,0,1,1,2.67,0C185.87,189.6,184.81,189.6,184.27,188.54Z"/><path class="cls-1" d="M176.29,195.46c-.54-1.07-.54-2.13.53-2.67s2.13-.53,2.66.54.53,2.13-.53,2.66C178.42,196,176.82,196,176.29,195.46Z"/><path class="cls-1" d="M168.3,200.79c-.54-1.07-.54-2.14.53-2.67a2.35,2.35,0,0,1,2.66.53c.53,1.07.53,2.14-.53,2.67S168.83,201.85,168.3,200.79Z"/><path class="cls-1" d="M159.24,205.58a2,2,0,1,1,2.67,1.06A2,2,0,0,1,159.24,205.58Z"/><path class="cls-1" d="M149.66,209.3a2,2,0,1,1,2.66,1.07A1.94,1.94,0,0,1,149.66,209.3Z"/><path class="cls-1" d="M140.07,212c0-1.07.53-2.13,1.6-2.13s2.13.53,2.13,1.59c.53,1.07-.53,2.14-1.6,2.14S140.6,213,140.07,212Z"/><path class="cls-1" d="M130.48,214.1c0-1.07.54-2.13,1.6-2.13s2.13.53,2.13,1.6-.53,2.13-1.6,2.13S130.48,215.16,130.48,214.1Z"/><path class="cls-1" d="M120.36,214.63c0-1.06.54-2.13,1.6-2.13s2.13.53,2.13,1.6-.53,2.13-1.59,2.13S120.36,215.7,120.36,214.63Z"/><path class="cls-1" d="M110.25,204c0-1.06,1.06-1.6,2.13-1.6s1.59,1.07,1.59,2.13-1.06,1.6-2.13,1.6S110.25,205.05,110.25,204Z"/><path class="cls-1" d="M100.13,202.38c0-1.06,1.06-1.6,2.13-1.6s1.6,1.07,1.6,2.13-1.07,1.6-2.14,1.6S100.13,203.45,100.13,202.38Z"/><path class="cls-1" d="M90.54,199.72c.53-1.07,1.6-1.6,2.13-1.07,1.07.54,1.6,1.6,1.07,2.14a2,2,0,0,1-2.67,1.06C90.54,201.32,90,200.25,90.54,199.72Z"/><path class="cls-1" d="M81,195.46A2,2,0,1,1,82,198.12,2,2,0,0,1,81,195.46Z"/><path class="cls-1" d="M72.43,190.66c.53-1.06,1.6-1.06,2.66-.53s1.07,1.6.54,2.66-1.6,1.07-2.67.54S71.37,191.73,72.43,190.66Z"/><path class="cls-1" d="M63.91,184.81c.53-.53,2.13-1.07,2.66-.53,1.07.53,1.07,1.59.54,2.66s-1.6,1.06-2.67.53C63.38,186.41,63.38,185.34,63.91,184.81Z"/><path class="cls-1" d="M56.45,177.88a2.44,2.44,0,0,1,2.67,0,2.44,2.44,0,0,1,0,2.67,2.44,2.44,0,0,1-2.67,0A2.4,2.4,0,0,1,56.45,177.88Z"/><path class="cls-1" d="M50.06,169.89c1.07-.53,2.13-.53,2.67.54s.53,2.13-.54,2.66-2.13.53-2.66-.53S49,170.43,50.06,169.89Z"/><path class="cls-1" d="M44.2,161.37a1.92,1.92,0,0,1,2.14,3.2c-1.07.53-2.14.53-2.67-.53A2.36,2.36,0,0,1,44.2,161.37Z"/><path class="cls-1" d="M39.94,152.32a2,2,0,0,1,2.67,1.06c0,1.07,0,2.13-1.07,2.67a2,2,0,0,1-1.6-3.73Z"/><path class="cls-1" d="M36.22,142.73a1.57,1.57,0,0,1,2.13,1.07c.53,1.06,0,2.13-1.07,2.13a1.94,1.94,0,0,1-2.66-1.07A2.85,2.85,0,0,1,36.22,142.73Z"/><path class="cls-1" d="M34.09,133.15c1.06,0,2.13.53,2.13,1.59s-.54,2.14-1.6,2.14-2.13-.54-2.13-1.6S33,133.15,34.09,133.15Z"/><path class="cls-1" d="M33,123c1.07,0,2.13.53,2.13,1.59s-.53,2.13-1.6,2.13-2.13-.53-2.13-1.59S32,123,33,123Z"/><path class="cls-1" d="M33,112.91c1.07,0,1.6,1.06,1.6,2.13s-1.07,1.6-2.13,1.6-1.6-1.07-1.6-2.13C31.42,113.44,32,112.38,33,112.91Z"/><path class="cls-1" d="M34.62,102.79c1.06,0,1.6,1.06,1.6,2.13s-1.07,1.6-2.13,1.6-1.6-1.07-1.6-2.13S33.55,102.26,34.62,102.79Z"/><path class="cls-1" d="M36.75,92.67c1.06.53,1.6,1.6,1.06,2.13,0,1.07-1.06,1.6-2.13,1.07-1.06,0-1.59-1.07-1.59-2.13A4,4,0,0,1,36.75,92.67Z"/><path class="cls-1" d="M40.48,83.08a2,2,0,1,1-2.67,1.07C38.35,83.08,39.41,83.08,40.48,83.08Z"/><path class="cls-1" d="M45.27,74.56c1.07.53,1.07,1.6.53,2.66s-1.59,1.07-2.66.54a2.35,2.35,0,0,1-.53-2.67C43.14,74,44.21,74,45.27,74.56Z"/><path class="cls-1" d="M51.13,66c1.06.53,1.06,1.6.53,2.66-1.06.54-2.13,1.07-3.19.54A2.12,2.12,0,0,1,51.13,66Z"/><path class="cls-1" d="M57.52,58.05a2.42,2.42,0,0,1,0,2.66c-.53.54-2.13,1.07-2.66,0-.54-.53-1.07-2.13,0-2.66A2.38,2.38,0,0,1,57.52,58.05Z"/><path class="cls-1" d="M65.51,51.66c.53,1.07.53,2.13-.53,2.66a2.4,2.4,0,0,1-2.67,0,2.42,2.42,0,0,1,0-2.66A2,2,0,0,1,65.51,51.66Z"/><path class="cls-1" d="M73.5,45.8c.53,1.07.53,2.13-.54,2.67s-2.13.53-2.66-.54-.53-2.13.53-2.66S73,44.74,73.5,45.8Z"/><path class="cls-1" d="M82.55,41a2,2,0,1,1-2.66-1.07A1.94,1.94,0,0,1,82.55,41Z"/><path class="cls-1" d="M92.14,37.28a2,2,0,1,1-2.67-1.06A1.94,1.94,0,0,1,92.14,37.28Z"/><path class="cls-1" d="M101.72,34.62c0,1.06-.53,2.13-1.59,2.13S98,36.22,98,35.15,98.53,33,99.59,33,101.72,33.55,101.72,34.62Z"/><path class="cls-1" d="M111.84,33c0,1.07-.53,2.13-1.59,2.13s-2.14-.53-2.14-1.6.54-2.13,1.6-2.13S111.84,32,111.84,33Z"/><path class="cls-1" d="M122,33c0,1.07-1.06,1.6-2.13,1.6s-1.6-1.07-2.13-2.13c0-1.07,1.07-2.13,2.13-1.6A2.29,2.29,0,0,1,122,33Z"/><path class="cls-1" d="M132.08,34.09c0,1.06-1.07,1.59-2.13,1.59s-1.6-1.06-1.6-2.13S129.42,32,130.48,32,132.08,33,132.08,34.09Z"/><path class="cls-1" d="M142.2,36.22a2,2,0,0,1-2.66,1.06c-1.07,0-1.6-1.06-1.07-2.13,0-1.06,1.07-1.6,2.13-1.6A2.94,2.94,0,0,1,142.2,36.22Z"/><path class="cls-1" d="M151.79,39.41a2,2,0,1,1-3.73-1.6,2.35,2.35,0,0,1,2.66-.53C151.79,37.81,151.79,38.35,151.79,39.41Z"/><path class="cls-1" d="M160.84,44.21c-.53,1.06-1.6,1.06-2.66.53s-1.07-1.6-1.07-2.66c.54-1.07,1.6-1.07,2.66-1.07A2.56,2.56,0,0,1,160.84,44.21Z"/><path class="cls-1" d="M169.36,49.53c-.53,1.07-1.6,1.07-2.66.53s-1.07-1.59-.53-2.66,1.59-1.06,2.66-.53A2.35,2.35,0,0,1,169.36,49.53Z"/><path class="cls-1" d="M176.82,55.92c-.53.53-2.13,1.07-2.67,0-.53-.53-1.06-2.13,0-2.66.54-.53,2.14-1.07,2.67,0S177.88,55.39,176.82,55.92Z"/><path class="cls-1" d="M184.27,63.38a2.38,2.38,0,0,1-2.66,0,2.42,2.42,0,0,1,0-2.66,2.39,2.39,0,0,1,2.66,0A2.39,2.39,0,0,1,184.27,63.38Z"/><path class="cls-1" d="M190.13,71.37c-1.06.53-2.13.53-2.66-.54s-.53-2.13.53-2.66,2.13-.53,2.66.53S191.2,70.83,190.13,71.37Z"/><path class="cls-1" d="M194.93,80.42a2,2,0,0,1-2.67-1.06,1.92,1.92,0,0,1,3.2-2.14C196.52,78.82,196,79.89,194.93,80.42Z"/><path class="cls-1" d="M199.19,89.47a2,2,0,1,1,1.06-2.66A1.95,1.95,0,0,1,199.19,89.47Z"/><path class="cls-1" d="M201.85,99.06c-1.07,0-2.13-.53-2.13-1.6s.53-2.13,1.6-2.13c1.06-.53,2.13.54,2.13,1.6S202.91,99.06,201.85,99.06Z"/><path class="cls-1" d="M204,109.18c-1.07,0-2.13-.53-2.13-1.6s.53-2.13,1.6-2.13,2.13.53,2.13,1.6S205,109.18,204,109.18Z"/><path class="cls-1" d="M204.51,119.3c-1.06,0-1.6-1.07-2.13-2.13,0-1.07.53-2.13,1.6-2.13a2.29,2.29,0,0,1,2.13,2.13C206.11,118.77,205.58,119.3,204.51,119.3Z"/><path class="cls-1" d="M203.45,129.42c-1.07,0-1.6-1.07-1.6-2.13s1.06-1.6,2.13-1.6,2.13,1.07,1.6,2.13C205.58,128.89,204.51,129.42,203.45,129.42Z"/><path class="cls-1" d="M201.85,139.54c-1.07,0-1.6-1.07-1.6-2.13s1.07-1.6,2.13-1.6,1.6,1.07,1.6,2.13C203.45,139,202.91,139.54,201.85,139.54Z"/><path class="cls-1" d="M198.65,149.12a2,2,0,1,1,2.67-1.06A1.94,1.94,0,0,1,198.65,149.12Z"/><path class="cls-1" d="M194.39,158.71c-1.06-.53-1.06-1.6-1.06-2.66.53-1.07,1.6-1.07,2.66-1.07a2,2,0,0,1,1.07,2.67C196.52,158.71,195.46,158.71,194.39,158.71Z"/><path class="cls-1" d="M189.07,167.23c-1.07-.53-1.07-1.6-.53-2.66s1.59-1.07,2.66-.53,1.06,1.59.53,2.66S190.13,167.76,189.07,167.23Z"/><path class="cls-1" d="M183.21,175.22c-.53-.53-1.07-2.13,0-2.66a1.75,1.75,0,0,1,2.66,0c.53.53,1.07,2.13,0,2.66A2.38,2.38,0,0,1,183.21,175.22Z"/><path class="cls-1" d="M175.75,182.14a1.88,1.88,0,1,1,2.67,0C177.88,182.68,176.29,183.21,175.75,182.14Z"/><path class="cls-1" d="M167.76,188.53c-.53-1.06-.53-2.13.54-2.66s2.13-.53,2.66.53.53,2.13-.53,2.67A1.86,1.86,0,0,1,167.76,188.53Z"/><path class="cls-1" d="M159.24,193.86a1.92,1.92,0,1,1,2.67.53C160.84,195.46,159.78,194.93,159.24,193.86Z"/><path class="cls-1" d="M150.19,198.12a2,2,0,1,1,2.66,1.07C151.79,199.72,150.19,199.19,150.19,198.12Z"/><path class="cls-1" d="M140.6,201.32c0-1.07.53-2.13,1.07-2.13,1.06,0,2.13.53,2.13,1.6a1.57,1.57,0,0,1-1.07,2.12C141.67,202.91,140.6,202.38,140.6,201.32Z"/><path class="cls-1" d="M130.48,203.45c0-1.07.53-2.13,1.6-2.13s2.13.53,2.13,1.59-.53,2.13-1.6,2.13S130.48,204.51,130.48,203.45Z"/><path class="cls-1" d="M120.36,204a2.38,2.38,0,0,1,1.6-2.13c1.07,0,2.13.53,2.13,1.6s-.53,2.13-1.59,2.13C121.43,206.11,120.36,205.05,120.36,204Z"/><path class="cls-1" d="M110.25,193.33c0-1.07,1.06-1.6,2.13-1.6s1.59,1.07,1.59,2.13-1.06,1.6-2.13,1.6S110.25,194.39,110.25,193.33Z"/><path class="cls-1" d="M100.13,191.73c0-1.07,1.06-1.6,2.13-1.6,1.06.53,1.59,1.07,1.59,2.13s-1.06,1.6-2.13,1.6S100.13,192.79,100.13,191.73Z"/><path class="cls-1" d="M90.54,188.53a2,2,0,1,1,1.06,2.67C90.54,190.66,90.54,189.6,90.54,188.53Z"/><path class="cls-1" d="M81.49,184.27c.53-1.06,1.59-1.06,2.66-.53s1.06,1.6,1.06,2.66c-.53,1.07-1.59,1.07-2.66,1.07C81.49,186.4,81,185.34,81.49,184.27Z"/><path class="cls-1" d="M73.5,179c.53-1.07,1.59-1.07,2.66-.53s1.07,1.59.53,2.66-1.6,1.06-2.66.53C73,180.55,72.43,179.48,73.5,179Z"/><path class="cls-1" d="M65.51,172a2.42,2.42,0,0,1,2.66,0,2.44,2.44,0,0,1,0,2.67c-.53.53-2.13,1.06-2.66,0A2.44,2.44,0,0,1,65.51,172Z"/><path class="cls-1" d="M59.12,164.57c1.06-.53,2.13-.53,2.66.53a2.38,2.38,0,0,1,0,2.66,2.39,2.39,0,0,1-2.66,0C58.05,166.7,58.05,165.1,59.12,164.57Z"/><path class="cls-1" d="M53.26,156.05a2.33,2.33,0,0,1,2.66.53c.53.53,0,2.13-.53,2.66-1.07.53-2.13.53-2.66-.53C52.19,158.18,52.73,156.58,53.26,156.05Z"/><path class="cls-1" d="M49,147.53a2,2,0,1,1-1.07,2.66C47.4,148.59,47.93,147.53,49,147.53Z"/><path class="cls-1" d="M45.8,137.94c1.07,0,2.13.53,2.13,1.07,0,1.06-.53,2.13-1.06,2.13-1.07.53-2.13,0-2.13-1.07C44.21,139,44.74,137.94,45.8,137.94Z"/><path class="cls-1" d="M43.67,127.82c1.07,0,2.13.53,2.13,1.6s-.53,2.13-1.6,2.13-2.13-.53-2.13-1.6S42.61,127.82,43.67,127.82Z"/><path class="cls-1" d="M43.14,117.7c1.06,0,1.6,1.07,2.13,1.6,0,1.06-.53,2.13-1.6,2.13s-2.13-.53-2.13-1.6S42.07,117.7,43.14,117.7Z"/><path class="cls-1" d="M44.2,107.58c1.07,0,1.6,1.07,1.6,2.13s-1.06,1.6-2.13,1.6-1.6-1.06-1.6-2.13S43.14,107.58,44.2,107.58Z"/><path class="cls-1" d="M46.34,98c1.06.53,1.59,1.06,1.59,2.13s-1.06,1.59-2.13,1.59-1.59-1.06-1.59-2.13C44.21,98,45.27,97.46,46.34,98Z"/><path class="cls-1" d="M49.53,88.41a2,2,0,1,1-2.66,1.06A1.94,1.94,0,0,1,49.53,88.41Z"/><path class="cls-1" d="M54.32,79.36c1.07.53,1.07,1.59.54,2.66s-1.6,1.06-2.67.53-1.06-1.6-.53-2.66A2.33,2.33,0,0,1,54.32,79.36Z"/><path class="cls-1" d="M60.18,71.37c1.07.53,1.07,1.59.53,2.66s-1.59,1.06-2.66.53S57,73,57.52,71.9,59.12,70.83,60.18,71.37Z"/><path class="cls-1" d="M66.57,63.91a2.39,2.39,0,0,1,0,2.66,2.34,2.34,0,0,1-2.66,0c-.53-.53-1.07-2.13,0-2.66A1.75,1.75,0,0,1,66.57,63.91Z"/><path class="cls-1" d="M74.56,57.52c.54,1.06.54,2.13-.53,2.66s-2.13.53-2.66-.53-.54-2.13.53-2.66S74,56.45,74.56,57.52Z"/><path class="cls-1" d="M83.08,52.19a1.92,1.92,0,1,1-3.19,2.13,2.35,2.35,0,0,1,.53-2.66C81.49,50.59,82.55,51.13,83.08,52.19Z"/><path class="cls-1" d="M92.14,47.93a2,2,0,1,1-2.67-1.06C91.07,46.33,92.14,46.87,92.14,47.93Z"/><path class="cls-1" d="M101.72,45.27c0,1.06-.53,2.13-1.59,2.13S98,46.87,98,45.8c-.54-1.06.53-2.13,1.59-2.13S101.72,44.2,101.72,45.27Z"/><path class="cls-1" d="M111.84,43.67c0,1.07-.53,2.13-1.59,2.13s-2.14-.53-2.14-1.59.54-2.14,1.6-2.14C110.78,41.54,111.84,42.61,111.84,43.67Z"/><path class="cls-1" d="M122,43.14c0,1.06-1.06,1.6-2.13,1.6s-1.6-1.07-1.6-2.13,1.07-2.13,2.13-1.6C120.9,41.54,122,42.07,122,43.14Z"/><path class="cls-1" d="M132.08,44.2c0,1.07-1.06,1.6-2.13,1.6s-1.6-1.06-1.6-2.13,1.07-1.6,2.13-1.6A2.86,2.86,0,0,1,132.08,44.2Z"/><path class="cls-1" d="M141.67,46.87c-.53,1.06-1.07,1.6-2.13,1.06-1.07,0-1.6-1.06-1.07-2.13,0-1.06,1.07-1.6,2.13-1.6A2,2,0,0,1,141.67,46.87Z"/><path class="cls-1" d="M151.25,50.6a1.94,1.94,0,0,1-2.66,1.06c-1.06-.53-1.06-1.6-1.06-2.66a1.94,1.94,0,0,1,2.66-1.07C151.25,48.46,151.25,49.53,151.25,50.6Z"/><path class="cls-1" d="M159.78,55.39c-.54,1.06-1.6,1.06-2.67.53s-1.06-1.6-.53-2.66,1.6-1.07,2.66-.53A1.85,1.85,0,0,1,159.78,55.39Z"/><path class="cls-1" d="M167.76,61.78a1.75,1.75,0,0,1-2.66,0c-1.06-.53-1.06-1.6-.53-2.66s1.6-1.07,2.66-.54A2.5,2.5,0,0,1,167.76,61.78Z"/><path class="cls-1" d="M175.22,68.7A1.88,1.88,0,1,1,172.56,66a2.42,2.42,0,0,1,2.66,0A2.42,2.42,0,0,1,175.22,68.7Z"/><path class="cls-1" d="M181.08,76.69c-1.07.53-2.13.53-2.66-.53s-.54-2.13.53-2.66,2.13-.54,2.66.53S182.14,76.16,181.08,76.69Z"/><path class="cls-1" d="M186.4,85.21a1.94,1.94,0,0,1-2.66-1.06,1.92,1.92,0,0,1,3.2-2.13A3,3,0,0,1,186.4,85.21Z"/><path class="cls-1" d="M190.13,94.8a2,2,0,1,1,1.07-2.66A1.94,1.94,0,0,1,190.13,94.8Z"/><path class="cls-1" d="M192.8,104.39c-1.07,0-2.13-.54-2.13-1.6s.53-2.13,1.59-2.13,2.13.53,2.13,1.6S193.86,104.39,192.8,104.39Z"/><path class="cls-1" d="M193.86,114.51c-1.06,0-2.13-.54-2.13-1.6s.53-2.13,1.6-2.13,2.13.53,2.13,1.6S194.93,114.51,193.86,114.51Z"/><path class="cls-1" d="M193.86,124.62c-1.06,0-1.6-1.06-1.6-2.13s1.07-1.59,2.13-1.59S196,122,196,123C195.46,123.56,194.93,124.62,193.86,124.62Z"/><path class="cls-1" d="M192.26,134.21c-1.06,0-1.59-1.06-1.59-2.13s1.06-1.6,2.13-1.6,1.59,1.07,1.59,2.13C194.39,134.21,193.33,134.74,192.26,134.21Z"/><path class="cls-1" d="M189.6,143.8c-1.06-.53-1.6-1.6-1.06-2.13a1.94,1.94,0,0,1,2.66-1.07c1.06.53,1.6,1.6,1.06,2.13A1.94,1.94,0,0,1,189.6,143.8Z"/><path class="cls-1" d="M185.34,153.38c-1.07-.53-1.07-1.59-1.07-2.66.54-1.06,1.6-1.06,2.67-1.06a2,2,0,0,1-1.6,3.72Z"/><path class="cls-1" d="M180,161.9c-1.06-.53-1.06-1.59-.53-2.66s1.6-1.06,2.66-.53,1.07,1.6.54,2.66S181.08,162.44,180,161.9Z"/><path class="cls-1" d="M174.16,169.89c-.54-.53-1.07-2.13,0-2.66.53-.53,2.13-1.06,2.66,0,1.06.53,1.06,1.6,0,2.66A2.34,2.34,0,0,1,174.16,169.89Z"/><path class="cls-1" d="M166.7,176.82a2.4,2.4,0,0,1,0-2.67,1.88,1.88,0,1,1,0,2.67Z"/><path class="cls-1" d="M158.18,182.68c-.53-1.07-.53-2.14.53-2.67s2.13-.53,2.66.53.54,2.14-.53,2.67C160.31,183.74,159.24,183.21,158.18,182.68Z"/><path class="cls-1" d="M149.66,187.47a2,2,0,1,1,2.66,1.07A4.06,4.06,0,0,1,149.66,187.47Z"/><path class="cls-1" d="M140.07,190.66a1.56,1.56,0,0,1,1.07-2.12c1.06-.54,2.13,0,2.13,1.06a1.94,1.94,0,0,1-1.07,2.66A2.85,2.85,0,0,1,140.07,190.66Z"/><path class="cls-1" d="M130.48,192.8c0-1.07.53-2.13,1.6-2.13s2.13.53,2.13,1.59-.53,2.13-1.6,2.13C131.55,194.93,130.48,193.86,130.48,192.8Z"/><path class="cls-1" d="M120.36,193.86c0-1.06.54-2.13,1.6-2.13s2.13.53,2.13,1.6-.53,2.13-1.59,2.13C121.43,196,120.36,194.93,120.36,193.86Z"/><path class="cls-1" d="M110.25,183.21c0-1.07,1.06-1.6,2.13-1.6s1.59,1.07,1.59,2.13-1.06,1.6-2.13,1.6C110.78,184.81,110.25,184.27,110.25,183.21Z"/><path class="cls-1" d="M100.13,181.08a2.83,2.83,0,0,1,2.13-1.6c1.06,0,1.59,1.07,1.59,2.13s-1.06,1.6-2.13,1.6S99.59,182.14,100.13,181.08Z"/><path class="cls-1" d="M90.54,177.35A2,2,0,1,1,91.6,180,1.94,1.94,0,0,1,90.54,177.35Z"/><path class="cls-1" d="M82,172c.53-1.06,1.6-1.06,2.66-.53s1.07,1.6.53,2.66-1.59,1.07-2.66.54S81,173.09,82,172Z"/><path class="cls-1" d="M74,165.63c.53-.53,2.13-1.06,2.66,0,.54.53,1.07,2.13,0,2.67a1.51,1.51,0,0,1-2.66,0A1.76,1.76,0,0,1,74,165.63Z"/><path class="cls-1" d="M67.11,158.18c1.06-.53,2.13-.53,2.66.53a2.42,2.42,0,0,1,0,2.66,2.42,2.42,0,0,1-2.66,0Q65.51,159,67.11,158.18Z"/><path class="cls-1" d="M61.25,149.66a1.92,1.92,0,0,1,2.13,3.19,2.36,2.36,0,0,1-2.67-.53A2.33,2.33,0,0,1,61.25,149.66Z"/><path class="cls-1" d="M57.52,140.07a2,2,0,1,1-1.07,2.66A1.95,1.95,0,0,1,57.52,140.07Z"/><path class="cls-1" d="M54.86,130.48c1.06,0,2.13.54,2.13,1.6s-.54,2.13-1.6,2.13-2.13-.53-2.13-1.6C52.73,131.55,53.79,130.48,54.86,130.48Z"/><path class="cls-1" d="M53.79,120.36c1.07,0,2.13.54,2.13,1.6s-.53,2.13-1.6,2.13-2.13-.53-2.13-1.6C51.66,121.43,52.73,120.36,53.79,120.36Z"/><path class="cls-1" d="M54.32,110.25c1.07,0,1.6,1.06,1.6,2.13S54.86,114,53.79,114s-1.6-1.06-1.6-2.13S53.26,110.25,54.32,110.25Z"/><path class="cls-1" d="M56.45,100.13a2.83,2.83,0,0,1,1.6,2.13,2.37,2.37,0,0,1-2.13,1.59c-1.06,0-1.6-1.06-1.6-2.13S55.39,99.59,56.45,100.13Z"/><path class="cls-1" d="M60.18,90.54a2,2,0,1,1-2.66,1.06A1.94,1.94,0,0,1,60.18,90.54Z"/><path class="cls-1" d="M65,82c1.06.53,1.06,1.6.53,2.66a2.33,2.33,0,0,1-2.66.53c-1.07-.53-1.07-1.59-.54-2.66S63.91,81,65,82Z"/><path class="cls-1" d="M71.37,74c.53.53,1.06,2.13,0,2.66-.54.53-2.13,1.07-2.67,0a1.51,1.51,0,0,1,0-2.66C69.77,73.5,70.83,73,71.37,74Z"/><path class="cls-1" d="M78.82,67.11c.54,1.06.54,2.13-.53,2.66a2.42,2.42,0,0,1-2.66,0,2.39,2.39,0,0,1,0-2.66C77.22,66,78.29,66,78.82,67.11Z"/><path class="cls-1" d="M87.34,61.25a1.92,1.92,0,0,1-3.19,2.13,2.36,2.36,0,0,1,.53-2.67C85.21,60.18,86.81,60.71,87.34,61.25Z"/><path class="cls-1" d="M96.93,57.52a2,2,0,1,1-2.66-1.07A1.94,1.94,0,0,1,96.93,57.52Z"/><path class="cls-1" d="M106.52,54.86c0,1.06-.54,2.13-1.6,2.13s-2.13-.54-2.13-1.6.53-2.13,1.6-2.13C105.45,52.73,106.52,53.79,106.52,54.86Z"/><path class="cls-1" d="M116.64,53.79c0,1.07-.54,2.13-1.6,2.13s-2.13-.53-2.13-1.6.53-2.13,1.59-2.13C116.1,51.66,116.64,52.73,116.64,53.79Z"/><path class="cls-1" d="M127.29,54.32c0,1.07-1.07,1.6-2.13,1.6s-1.6-1.06-1.6-2.13,1.06-1.6,2.13-1.6A2.39,2.39,0,0,1,127.29,54.32Z"/><path class="cls-1" d="M136.88,56.45a2.86,2.86,0,0,1-2.14,1.6c-1.06,0-1.59-1.06-1.59-2.13s1.06-1.6,2.13-1.6C136.88,54.32,137.41,55.39,136.88,56.45Z"/><path class="cls-1" d="M146.46,60.18a2,2,0,1,1-1.06-2.66A1.94,1.94,0,0,1,146.46,60.18Z"/><path class="cls-1" d="M155.51,65c-.53,1.07-1.59,1.07-2.66.54s-1.06-1.6-.53-2.67,1.6-1.06,2.66-.53A2.33,2.33,0,0,1,155.51,65Z"/><path class="cls-1" d="M163.5,71.37c-.53.53-2.13,1.06-2.66,0-.53-.54-1.07-2.13,0-2.67a1.51,1.51,0,0,1,2.66,0A2.4,2.4,0,0,1,163.5,71.37Z"/><path class="cls-1" d="M169.89,78.82c-1.06.54-2.13.54-2.66-.53a2.42,2.42,0,0,1,0-2.66,2.39,2.39,0,0,1,2.66,0C171,77.22,171,78.29,169.89,78.82Z"/><path class="cls-1" d="M175.75,87.34a1.92,1.92,0,1,1-2.13-3.19,2.36,2.36,0,0,1,2.67.53C176.82,85.75,176.82,86.81,175.75,87.34Z"/><path class="cls-1" d="M180,96.93a2,2,0,1,1,1.07-2.66C181.08,95.33,181.08,96.4,180,96.93Z"/><path class="cls-1" d="M182.68,106.52c-1.07,0-2.13-.53-2.13-1.6s.53-2.13,1.59-2.13,2.13.53,2.13,1.6S183.74,106.52,182.68,106.52Z"/><path class="cls-1" d="M183.74,116.64c-1.06,0-2.13-.54-2.13-1.6s.53-2.13,1.6-2.13,2.13.53,2.13,1.59C185.34,116.1,184.81,116.64,183.74,116.64Z"/><path class="cls-1" d="M183.21,127.29c-1.07,0-1.6-1.07-1.6-2.13s1.07-1.6,2.13-1.6,1.6,1.06,1.6,2.13C184.81,126.22,184.27,127.29,183.21,127.29Z"/><path class="cls-1" d="M181.08,136.87a2.83,2.83,0,0,1-1.6-2.13c0-1.06,1.07-1.59,2.13-1.59s1.6,1.06,1.6,2.13S182.14,137.41,181.08,136.87Z"/><path class="cls-1" d="M177.35,146.46A2,2,0,1,1,180,145.4,1.94,1.94,0,0,1,177.35,146.46Z"/><path class="cls-1" d="M172,155.51c-1.06-.53-1.06-1.59-.53-2.66s1.6-1.06,2.66-.53,1.07,1.6.54,2.66A2.35,2.35,0,0,1,172,155.51Z"/><path class="cls-1" d="M165.63,163.5c-.53-.53-1.06-2.13,0-2.66.54-.53,2.13-1.07,2.67,0a1.51,1.51,0,0,1,0,2.66A2.4,2.4,0,0,1,165.63,163.5Z"/><path class="cls-1" d="M158.18,169.89c-.53-1.06-.53-2.13.53-2.66a2.42,2.42,0,0,1,2.66,0,2.39,2.39,0,0,1,0,2.66Q159,171.5,158.18,169.89Z"/><path class="cls-1" d="M149.66,175.75a1.92,1.92,0,1,1,3.19-2.13,2.36,2.36,0,0,1-.53,2.67A1.85,1.85,0,0,1,149.66,175.75Z"/><path class="cls-1" d="M140.07,180a2,2,0,1,1,2.66,1.07C141.67,181.08,140.6,181.08,140.07,180Z"/><path class="cls-1" d="M130.48,182.68c0-1.07.53-2.13,1.6-2.13s2.13.53,2.13,1.6-.53,2.12-1.6,2.12S130.48,183.74,130.48,182.68Z"/><path class="cls-1" d="M120.36,183.74c0-1.06.54-2.13,1.6-2.13s2.13.53,2.13,1.6-.53,2.13-1.59,2.13S120.36,184.81,120.36,183.74Z"/><path class="cls-1" d="M110.24,172.56c0-1.07,1.07-1.6,2.13-1.6s1.6,1.06,1.6,2.13-1.06,2.13-2.13,1.6C110.78,174.69,110.24,173.62,110.24,172.56Z"/><path class="cls-1" d="M100.66,169.89c.53-1.06,1.6-1.59,2.13-1.06,1.06,0,1.6,1.06,1.06,2.13a1.94,1.94,0,0,1-2.66,1.06C100.66,172,100.13,171,100.66,169.89Z"/><path class="cls-1" d="M91.07,166.17c.53-1.07,1.6-1.07,2.66-.54s1.07,1.6,1.07,2.67c-.53,1.06-1.6,1.06-2.66,1.06C91.07,168.3,90.54,166.7,91.07,166.17Z"/><path class="cls-1" d="M83.08,160.31c.53-1.07,1.6-1.07,2.67-.54s1.06,1.6.53,2.67-1.6,1.06-2.67.53A1.86,1.86,0,0,1,83.08,160.31Z"/><path class="cls-1" d="M76.16,152.85a2.38,2.38,0,0,1,2.66,0,2.42,2.42,0,0,1,0,2.66,2.39,2.39,0,0,1-2.66,0A1.5,1.5,0,0,1,76.16,152.85Z"/><path class="cls-1" d="M70.3,144.33a1.92,1.92,0,0,1,2.13,3.2c-1.06.53-2.13.53-2.66-.54S69.24,144.86,70.3,144.33Z"/><path class="cls-1" d="M66.57,135.28a2,2,0,1,1-1.06,2.66C65,136.34,65.51,135.28,66.57,135.28Z"/><path class="cls-1" d="M64.44,125.16c1.07,0,2.13.53,2.13,1.59s-.53,2.13-1.6,2.13-2.13-.53-2.13-1.59S63.38,125.69,64.44,125.16Z"/><path class="cls-1" d="M63.91,115c1.06,0,1.6,1.06,1.6,2.13s-1.07,1.6-2.13,1.6-2.13-1.07-1.6-2.13C62.31,116.1,62.84,115,63.91,115Z"/><path class="cls-1" d="M65.51,105.45c1.06,0,1.6,1.07,1.6,2.13s-1.07,1.6-2.14,1.6-1.59-1.07-1.59-2.13C63.38,105.45,64.44,104.92,65.51,105.45Z"/><path class="cls-1" d="M68.7,95.86A2,2,0,1,1,66,96.93C66.57,95.86,68.17,95.33,68.7,95.86Z"/><path class="cls-1" d="M74,86.81c1.06.53,1.06,1.6.53,2.66S73,90.54,71.9,90s-1.07-1.6-.53-2.67A2.34,2.34,0,0,1,74,86.81Z"/><path class="cls-1" d="M80.42,79.35a2.44,2.44,0,0,1,0,2.67,2.38,2.38,0,0,1-2.66,0c-.54-.53-1.07-2.13,0-2.67A2.42,2.42,0,0,1,80.42,79.35Z"/><path class="cls-1" d="M88.41,73c.53,1.07.53,2.13-.53,2.67s-2.13.53-2.67-.54-.53-2.13.54-2.66S87.88,71.9,88.41,73Z"/><path class="cls-1" d="M97.46,68.17a2,2,0,1,1-2.66-1.06C95.87,67.11,96.93,67.11,97.46,68.17Z"/><path class="cls-1" d="M107.05,65c0,1.07-.53,2.14-1.6,2.14s-2.13-.54-2.13-1.6c-.53-1.07.53-2.13,1.6-2.13S106.52,64.44,107.05,65Z"/><path class="cls-1" d="M116.64,63.91c0,1.07-.54,2.13-1.6,2.13s-2.13-.53-2.13-1.6.53-2.13,1.59-2.13C116.1,62.31,116.64,62.84,116.64,63.91Z"/><path class="cls-1" d="M126.75,64.44c0,1.07-1.06,1.6-2.13,1.6S123,65,123,63.91s1.06-2.13,2.13-1.6S127.29,63.38,126.75,64.44Z"/><path class="cls-1" d="M136.87,67.11c-.53,1.06-1.6,1.59-2.13,1.06-1.06,0-1.59-1.06-1.06-2.13A1.94,1.94,0,0,1,136.34,65,5.5,5.5,0,0,1,136.87,67.11Z"/><path class="cls-1" d="M145.93,71.37c-.53,1.06-1.6,1.06-2.67.53s-1.06-1.6-1.06-2.66c.53-1.07,1.6-1.07,2.66-1.07C145.93,69.24,146.46,70.3,145.93,71.37Z"/><path class="cls-1" d="M153.92,77.22c-.54,1.07-1.6,1.07-2.67.54s-1.06-1.6-.53-2.67,1.6-1.06,2.66-.53C155,75.09,155,76.16,153.92,77.22Z"/><path class="cls-1" d="M161.37,84.15a2.38,2.38,0,0,1-2.66,0,2.42,2.42,0,0,1,0-2.66,1.88,1.88,0,1,1,2.66,2.66Z"/><path class="cls-1" d="M166.7,92.67a1.92,1.92,0,0,1-2.13-3.2c1.06-.53,2.13-.53,2.66.54S167.76,92.14,166.7,92.67Z"/><path class="cls-1" d="M171,101.72A2,2,0,1,1,172,99.06C172,100.66,171.49,101.72,171,101.72Z"/><path class="cls-1" d="M172.56,111.84c-1.07,0-2.13-.53-2.13-1.59s.53-2.14,1.59-2.14,2.13.54,2.13,1.6S173.62,111.84,172.56,111.84Z"/><path class="cls-1" d="M173.09,122c-1.07,0-1.6-1.06-1.6-2.13s1.07-1.6,2.13-1.6,2.13,1.07,1.6,2.13C175.22,121.43,174.15,122,173.09,122Z"/><path class="cls-1" d="M171.49,132.08c-1.06,0-1.6-1.06-1.6-2.13s1.07-1.6,2.13-1.6,1.6,1.07,1.6,2.13S172.56,132.08,171.49,132.08Z"/><path class="cls-1" d="M168.3,141.67A2,2,0,1,1,171,140.6C170.43,141.67,169.36,141.67,168.3,141.67Z"/><path class="cls-1" d="M163,150.19c-1.07-.53-1.07-1.6-.53-2.67s1.6-1.06,2.66-.53,1.06,1.6.53,2.67S164,150.72,163,150.19Z"/><path class="cls-1" d="M156.58,157.65a2.44,2.44,0,0,1,0-2.67,2.38,2.38,0,0,1,2.66,0c.53.53,1.07,2.13,0,2.67C158.71,158.71,157.65,158.71,156.58,157.65Z"/><path class="cls-1" d="M148.59,164c-.53-1.07-.53-2.14.53-2.67s2.13-.53,2.67.53.53,2.14-.54,2.67C150.72,165.1,149.65,165.1,148.59,164Z"/><path class="cls-1" d="M140.07,168.83a2,2,0,1,1,2.66,1.06A1.94,1.94,0,0,1,140.07,168.83Z"/><path class="cls-1" d="M130.48,172c0-1.07.53-2.13,1.6-2.13s2.13.53,2.13,1.59c.53,1.07-.53,2.13-1.6,2.13S130.48,173.09,130.48,172Z"/><path class="cls-1" d="M120.36,173.09c0-1.07.54-2.13,1.6-2.13s2.13.53,2.13,1.6-.53,2.13-1.6,2.13C121.43,175.22,120.36,174.15,120.36,173.09Z"/><path class="cls-1" d="M110.25,161.91c0-1.07,1.06-1.6,2.13-1.6s1.59,1.06,1.59,2.13-1.06,1.6-2.13,1.6S110.25,163,110.25,161.91Z"/><path class="cls-1" d="M100.66,159.24a2,2,0,1,1,1.06,2.67C100.66,161.37,100.66,160.31,100.66,159.24Z"/><path class="cls-1" d="M92.14,154.45c.53-1.07,1.59-1.07,2.66-.53s1.07,1.59.53,2.66-1.6,1.07-2.66.53C92.14,156.05,91.6,155,92.14,154.45Z"/><path class="cls-1" d="M85.21,147.53a1.88,1.88,0,0,1,2.67,2.66,2.44,2.44,0,0,1-2.67,0A1.51,1.51,0,0,1,85.21,147.53Z"/><path class="cls-1" d="M79.35,139.54a2.36,2.36,0,0,1,2.67.53,2.33,2.33,0,0,1-.54,2.66c-1.06.54-2.13.54-2.66-.53S78.29,140.07,79.35,139.54Z"/><path class="cls-1" d="M75.63,130c1.06,0,2.13.53,2.13,1.07.53,1.06,0,2.13-1.07,2.13A1.94,1.94,0,0,1,74,132.08,2.85,2.85,0,0,1,75.63,130Z"/><path class="cls-1" d="M74.56,120.36c1.07,0,2.13.54,2.13,1.6s-.53,2.13-1.6,2.13S73,123.56,73,122.5C72.43,121.43,73.5,120.36,74.56,120.36Z"/><path class="cls-1" d="M75.09,110.25c1.07,0,1.6,1.06,1.6,2.13S75.63,114,74.56,114s-1.6-1.06-1.6-2.13S74,110.25,75.09,110.25Z"/><path class="cls-1" d="M77.76,100.66a2,2,0,1,1-2.67,1.06C75.63,100.66,77.22,100.66,77.76,100.66Z"/><path class="cls-1" d="M83.08,92.14c1.07.53,1.07,1.6.54,2.66S82,95.87,81,95.33s-1.06-1.59-.53-2.66A2.35,2.35,0,0,1,83.08,92.14Z"/><path class="cls-1" d="M89.47,85.21a1.88,1.88,0,0,1-2.66,2.67,2.44,2.44,0,0,1,0-2.67C87.88,84.15,88.94,84.15,89.47,85.21Z"/><path class="cls-1" d="M98,79.36a1.92,1.92,0,0,1-3.2,2.13c-.53-1.07-.53-2.13.53-2.67S97.46,78.29,98,79.36Z"/><path class="cls-1" d="M107.05,75.63c0,1.06-.53,2.13-1.07,2.13-1.06.53-2.13,0-2.13-1.07A1.94,1.94,0,0,1,104.92,74C106,74,107.05,74.56,107.05,75.63Z"/><path class="cls-1" d="M117.17,74.56c0,1.07-.53,2.13-1.6,2.13s-2.13-.53-2.13-1.59S114,73,115,73C116.1,72.43,116.64,73.5,117.17,74.56Z"/><path class="cls-1" d="M126.75,75.1c0,1.06-1.06,1.59-2.13,1.59S123,75.63,123,74.56s1.06-1.6,2.13-1.6S126.75,74,126.75,75.1Z"/><path class="cls-1" d="M136.34,77.76a2,2,0,1,1-1.06-2.66C136.34,75.63,136.87,77.23,136.34,77.76Z"/><path class="cls-1" d="M144.86,83.08c-.53,1.07-1.6,1.07-2.66.54s-1.07-1.6-.53-2.67,1.59-1.06,2.66-.53S145.4,82,144.86,83.08Z"/><path class="cls-1" d="M152.32,89.47a1.88,1.88,0,0,1-2.66-2.66,2.42,2.42,0,0,1,2.66,0A2.38,2.38,0,0,1,152.32,89.47Z"/><path class="cls-1" d="M157.65,98a1.92,1.92,0,0,1-2.14-3.2c1.07-.53,2.14-.53,2.67.53C159.24,96.4,158.71,97.46,157.65,98Z"/><path class="cls-1" d="M161.37,107.05c-1.06,0-2.13-.53-2.13-1.06-.53-1.07,0-2.13,1.07-2.13a1.94,1.94,0,0,1,2.66,1.06C163,106,162.44,107.05,161.37,107.05Z"/><path class="cls-1" d="M163,117.17c-1.07,0-2.13-.53-2.13-1.6s.53-2.13,1.6-2.13,2.13.53,2.13,1.6S164,116.64,163,117.17Z"/><path class="cls-1" d="M161.9,126.75c-1.06,0-1.59-1.06-1.59-2.13s1.06-1.59,2.13-1.59,1.6,1.06,1.6,2.13S163,126.75,161.9,126.75Z"/><path class="cls-1" d="M159.24,136.34a2,2,0,1,1,2.66-1.06A1.95,1.95,0,0,1,159.24,136.34Z"/><path class="cls-1" d="M154.45,144.86c-1.07-.53-1.07-1.59-.53-2.66s1.59-1.07,2.66-.53,1.06,1.6.53,2.66C156.05,145.4,155,145.4,154.45,144.86Z"/><path class="cls-1" d="M147.53,152.32a1.88,1.88,0,0,1,2.66-2.66,1.88,1.88,0,1,1-2.66,2.66Z"/><path class="cls-1" d="M139.54,157.65a1.92,1.92,0,1,1,3.19-2.14c.53,1.07.53,2.14-.53,2.67C141.13,159.24,140.07,158.71,139.54,157.65Z"/><path class="cls-1" d="M130,161.37c0-1.06.53-2.13,1.07-2.13,1.06-.53,2.13,0,2.13,1.07a1.94,1.94,0,0,1-1.07,2.66A2.85,2.85,0,0,1,130,161.37Z"/><path class="cls-1" d="M120.36,163c0-1.06.54-2.13,1.6-2.13s2.13.53,2.13,1.6-.53,2.13-1.6,2.13S120.36,164,120.36,163Z"/><path class="cls-1" d="M110.25,151.25c.53-1.06,1.06-1.59,2.13-1.59s1.59,1.06,1.59,2.13-1.06,1.59-2.13,1.59S110.25,152.32,110.25,151.25Z"/><path class="cls-1" d="M100.66,147.52c.53-1.06,1.6-1.06,2.66-.53s1.07,1.6,1.07,2.66a2,2,0,0,1-2.67,1.07C100.66,149.65,100.13,148.59,100.66,147.52Z"/><path class="cls-1" d="M93.2,141.13a2.44,2.44,0,0,1,2.67,0,2.4,2.4,0,0,1,0,2.67c-.54.53-2.14,1.06-2.67,0A1.52,1.52,0,0,1,93.2,141.13Z"/><path class="cls-1" d="M87.88,132.61a1.94,1.94,0,0,1,2.66,1.07,1.92,1.92,0,0,1-3.2,2.13C86.28,134.21,86.81,133.15,87.88,132.61Z"/><path class="cls-1" d="M84.68,123c1.07,0,2.13.53,2.13,1.59s-.53,2.13-1.6,2.13-2.13-.53-2.13-1.59S83.62,123,84.68,123Z"/><path class="cls-1" d="M85.21,112.91c1.07,0,1.6,1.06,1.6,2.13s-1.06,1.6-2.13,1.6-2.13-1.07-1.6-2.13C83.08,113.44,84.15,112.38,85.21,112.91Z"/><path class="cls-1" d="M88.41,103.32a2,2,0,1,1-2.66,1.07A1.94,1.94,0,0,1,88.41,103.32Z"/><path class="cls-1" d="M94.27,94.8c.53.53,1.06,2.13,0,2.66a1.76,1.76,0,0,1-2.67,0,1.51,1.51,0,0,1,0-2.66A2.44,2.44,0,0,1,94.27,94.8Z"/><path class="cls-1" d="M102.26,88.94a1.92,1.92,0,0,1-3.2,2.13c-.53-1.06-.53-2.13.53-2.66C100.66,87.34,101.72,87.88,102.26,88.94Z"/><path class="cls-1" d="M111.84,85.21c0,1.07-.53,2.13-1.59,2.13s-2.14-.53-2.14-1.06c-.53-1.07,0-2.13,1.6-2.13C110.78,83.62,111.84,84.15,111.84,85.21Z"/><path class="cls-1" d="M122,84.68c0,1.07-1.06,1.6-2.13,1.6s-1.6-1.07-1.6-2.13,1.07-2.13,2.13-1.6S122,83.62,122,84.68Z"/><path class="cls-1" d="M131.55,87.34a2,2,0,0,1-2.67,1.07c-1.06-.53-1.59-1.6-1.06-2.13a1.94,1.94,0,0,1,2.66-1.07C131.55,85.21,132.08,86.28,131.55,87.34Z"/><path class="cls-1" d="M140.6,92.67a1.92,1.92,0,1,1-3.19-2.13c.53-1.07,1.59-1.07,2.66-.53S141.13,91.61,140.6,92.67Z"/><path class="cls-1" d="M147,100.13c-1.06.53-2.13.53-2.66-.54a1.86,1.86,0,0,1,.53-2.66c1.07-.53,2.13-.53,2.66.53S148.06,99.59,147,100.13Z"/><path class="cls-1" d="M151.25,109.18a1.57,1.57,0,0,1-2.13-1.07,2,2,0,0,1,3.73-1.59C152.85,108.11,152.32,109.18,151.25,109.18Z"/><path class="cls-1" d="M152.32,119.3c-1.07,0-1.6-1.07-2.13-1.6,0-1.06.53-1.6,1.6-2.13,1.06,0,2.13.53,2.13,1.6C154.45,118.77,153.38,119.3,152.32,119.3Z"/><path class="cls-1" d="M150.72,129.42c-1.06-.53-1.6-1.6-1.06-2.13,0-1.07,1.06-1.6,2.13-1.6s1.59,1.07,1.59,2.13C152.85,129.42,151.79,130,150.72,129.42Z"/><path class="cls-1" d="M145.93,138.47c-1.07-.53-1.07-1.6-.53-2.66s1.59-1.07,2.66-.53,1.06,1.59.53,2.66S147,139,145.93,138.47Z"/><path class="cls-1" d="M139,145.4a2.4,2.4,0,0,1,0-2.67,1.89,1.89,0,0,1,2.67,2.67A1.52,1.52,0,0,1,139,145.4Z"/><path class="cls-1" d="M130.48,150.72a2,2,0,1,1,2.67,1.07C131.55,151.79,130.48,151.25,130.48,150.72Z"/><path class="cls-1" d="M120.36,152.32c0-1.07.54-2.13,1.6-2.13s2.13.53,2.13,1.6-.53,2.13-1.6,2.13C121.43,154.45,120.36,153.38,120.36,152.32Z"/><path class="cls-1" d="M110.78,140.6c.53-1.06,1.6-1.59,2.13-1.06,1.06,0,1.59,1.06,1.06,2.13,0,1.06-1.06,1.6-2.13,1.6A2,2,0,0,1,110.78,140.6Z"/><path class="cls-1" d="M102.26,135.81c.53-.53,2.13-1.07,2.66,0a2.33,2.33,0,0,1,.53,2.66c-.53,1.07-1.6,1.07-2.66.53C101.72,137.41,101.72,136.34,102.26,135.81Z"/><path class="cls-1" d="M96.93,127.29a2,2,0,0,1,1.6,3.73,2.33,2.33,0,0,1-2.66-.54C95.33,128.89,95.87,127.82,96.93,127.29Z"/><path class="cls-1" d="M94.8,117.7c1.07,0,1.6,1.07,2.13,1.6,0,1.06-.53,1.6-1.6,2.13-1.06,0-2.13-.53-2.13-1.6S93.73,117.7,94.8,117.7Z"/><path class="cls-1" d="M97.46,108.11a2.14,2.14,0,0,1,1.07,2.14,2.93,2.93,0,0,1-2.67,1.59,2,2,0,0,1,1.6-3.73Z"/><path class="cls-1" d="M103.32,100.66a1.88,1.88,0,0,1-2.66,2.66c-.54-.53-1.07-2.13,0-2.66C101.72,99.59,102.79,99.59,103.32,100.66Z"/><path class="cls-1" d="M111.84,95.86c.54,1.07,0,2.14-1.06,2.14-1.07.53-2.13,0-2.13-1.07a1.94,1.94,0,0,1,1.06-2.66C110.78,94.27,111.84,94.8,111.84,95.86Z"/><path class="cls-1" d="M122,95.33c0,1.07-1.06,1.6-2.13,1.6s-1.6-1.06-1.6-2.13,1.07-2.13,2.13-1.6C121.43,93.2,122,94.27,122,95.33Z"/><path class="cls-1" d="M131,98.53c-.54,1.06-1.6,1.06-2.67.53s-1.06-1.6-.53-2.66a1.94,1.94,0,0,1,2.66-1.07A2.51,2.51,0,0,1,131,98.53Z"/><path class="cls-1" d="M137.94,105.45c-1.07.53-2.13.53-2.66-.53a2.35,2.35,0,0,1,0-2.66,2.39,2.39,0,0,1,2.66,0C139,103.32,139,104.92,137.94,105.45Z"/><path class="cls-1" d="M141.67,114.5c-1.07,0-2.13-.53-2.13-1.59s.53-2.13,1.06-2.13c1.07-.53,2.13,0,2.13,1.06C143.8,113.44,142.73,114.5,141.67,114.5Z"/><path class="cls-1" d="M141.67,124.09c-1.07-.53-1.6-1.06-1.6-2.13s1.06-1.6,2.13-1.6,1.6,1.07,1.6,2.14C143.8,124.09,142.73,124.62,141.67,124.09Z"/><path class="cls-1" d="M137.41,133.15c-1.07-.54-1.07-1.6-.54-2.67a2.36,2.36,0,0,1,2.67-.53c1.06.53,1.06,1.6.53,2.66C139,133.68,137.94,133.68,137.41,133.15Z"/><path class="cls-1" d="M130,139.54a2.36,2.36,0,0,1,.53-2.67c1.07-.53,2.13-.53,2.67.54s.53,2.13-.54,2.66S130,140.6,130,139.54Z"/><path class="cls-1" d="M120.36,142.2c0-1.07.54-2.13,1.6-2.13s1.6.53,2.13,1.6c0,1.06-.53,2.13-1.6,2.13S120.36,143.27,120.36,142.2Z"/><path class="cls-1" d="M110.78,128.89c.53-1.07,1.6-1.07,2.66-.54A4.1,4.1,0,0,1,114.5,131a1.94,1.94,0,0,1-2.66,1.06C110.25,131,109.71,130,110.78,128.89Z"/><path class="cls-1" d="M105.45,120.36c1.07,0,2.13.54,2.13,1.6s0,2.13-1.06,2.13a2,2,0,0,1-2.67-1.06C103.85,121.43,104.39,120.36,105.45,120.36Z"/><path class="cls-1" d="M108.11,110.78c1.07.53,1.07,1.6.54,2.66a4.11,4.11,0,0,1-2.67,1.07,2,2,0,0,1-1.06-2.67C106,110.25,107.05,109.71,108.11,110.78Z"/><path class="cls-1" d="M116.64,105.45c0,1.07-.54,2.13-1.6,2.13s-2.13,0-2.13-1.06a2,2,0,0,1,1.06-2.67C115.57,103.85,116.64,104.39,116.64,105.45Z"/><path class="cls-1" d="M126.75,108.11c-.53,1.07-1.59,1.07-2.66.54A4.1,4.1,0,0,1,123,106a1.94,1.94,0,0,1,2.66-1.06C127.29,106,127.29,107.05,126.75,108.11Z"/><path class="cls-1" d="M131.55,116.64c-1.07,0-2.13-.54-2.13-1.6s0-2.13,1.06-2.13a2,2,0,0,1,2.67,1.06A1.87,1.87,0,0,1,131.55,116.64Z"/><path class="cls-1" d="M128.88,126.75c-1.06-.53-1.06-1.59-.53-2.66A4.08,4.08,0,0,1,131,123a1.94,1.94,0,0,1,1.07,2.66C131,127.29,130,127.29,128.88,126.75Z"/><path class="cls-1" d="M120.36,131.55c0-1.07.54-2.13,1.6-2.13s2.13,0,2.13,1.06a2,2,0,0,1-1.06,2.67A1.87,1.87,0,0,1,120.36,131.55Z"/></svg>