<svg xmlns="http://www.w3.org/2000/svg" viewBox="0 0 831.96 850.6"><g id="Layer_2" data-name="Layer 2"><g id="Layer_1-2" data-name="Layer 1"><path d="M511.06,21.78a12.5,12.5,0,0,1,1.32-5.35c3.15-6,11-7.49,17.76-8.24L599.83.47c6.56-.72,14-1.2,18.95,3.16s5.43,11.58,5.64,18.09l11.37,369.56,166.89-51.65c4.39-1.36,9.62-2.58,13.22.28,2.68,2.13,3.45,5.81,4,9.18l11.33,64.3c.74,4.17,1.39,8.81-.93,12.36-2.42,3.72-7.22,4.91-11.57,5.8q-76.86,15.6-155,24.08c-5.52.6-11.66,1.5-15.09,5.87-3.1,3.94-2.94,9.45-2.66,14.46a1729.94,1729.94,0,0,1-1.38,214.57c-2.17,31.64-5.36,63.82-17.79,93s-35.58,55.35-66.1,64c-26.57,7.51-55.91.77-79.09-14.23s-40.67-37.58-53.56-62c-31.8-60.23-36.64-134.07-13-197.94S490.61,456.62,554,431.65c5.95-2.35,12.6-5,15.19-10.86,1.67-3.78,1.23-8.11.77-12.22q-10.8-95.13-21.58-190.27c-.24-2.09-.61-4.43-2.31-5.68s-4.12-.88-6.22-.43a1069.91,1069.91,0,0,0-158.43,46.9c-3.67,1.41-7.64,3.1-9.46,6.58-1.92,3.69-.82,8.16.35,12.15,9.83,33.55,21.46,66.83,25.76,101.51s.62,71.69-18.2,101.14C354.56,520,302,539.76,256.9,526.6s-78.79-58.09-78.82-105c0-20.5,5.74-40.67,14-59.43A229.05,229.05,0,0,1,298.77,250.53c3.74-1.86,7.86-4,9.33-7.87,1.17-3.13.31-6.61-.57-9.84l-25.35-93.25c-1.42-5.23-3.32-11.06-8.2-13.43-4.1-2-9-.82-13.34.42-82.81,23.56-223.11,119.12-227,119.32C31.34,245.36,1,197.79,0,185.78c-.59-6.87,18.45-15.14,31.74-21.17,42.49-19.29,84.6-36,127.69-53.94,43.46-18,86.61-37,131.25-52,4.08-1.37,8.58-2.71,12.59-1.15,5.35,2.08,7.59,8.3,9.2,13.81L353.1,210.21c.87,2.95,2,6.28,4.9,7.45,2.33,1,5,.11,7.34-.74l177.8-63.56L512.46,31.22A34.36,34.36,0,0,1,511.06,21.78ZM525.72,773a37.27,37.27,0,0,0,7.75,1c26.12.7,44.06-26.46,51-51.64,8.39-30.23,8.88-62,8.18-93.41a1301.77,1301.77,0,0,0-9.61-131.32c-.45-3.69-1.38-8-4.79-9.47-2.28-1-4.9-.29-7.26.46-55.7,17.86-91.94,68-104.74,123.49-12.14,52.55-5.27,115.09,36.76,148.9C509.75,766.44,517.44,771,525.72,773ZM347,434.65a128.57,128.57,0,0,0,2.22-39.79c-3.13-34.33-15.13-67.15-27-99.51-.67-1.82-1.47-3.8-3.2-4.69-2.49-1.28-5.42.36-7.73,1.94-40.73,27.85-88.54,59.29-81.71,116,3.89,32.36,27.31,61.59,58,72.45,5.2,1.83,10.68,3.19,16.17,2.78,6.72-.51,13-3.64,18.4-7.7C335.54,466.09,343.28,451.11,347,434.65Z"/></g></g></svg>